<?xml version="1.0" encoding="UTF-8" standalone="no"?>
<!DOCTYPE svg PUBLIC "-//W3C//DTD SVG 1.1//EN" "http://www.w3.org/Graphics/SVG/1.1/DTD/svg11.dtd">
<svg width="100%" height="100%" viewBox="0 0 355 355" version="1.1" xmlns="http://www.w3.org/2000/svg" xmlns:xlink="http://www.w3.org/1999/xlink" xml:space="preserve" xmlns:serif="http://www.serif.com/" style="fill-rule:evenodd;clip-rule:evenodd;stroke-linejoin:round;stroke-miterlimit:2;">
    <g transform="matrix(1,0,0,1,-627,-613)">
        <g transform="matrix(0.466839,0,0,0.466839,334.292023,326.827768)">
            <path d="M627,613L627,825.52L839.52,825.52L839.52,613L627,613ZM900.24,613L900.24,643.36L960.96,643.36L960.96,673.72L991.32,673.72L991.32,704.08L960.96,704.08L960.96,673.72L900.24,673.72L900.24,643.36L869.88,643.36L869.88,704.08L900.24,704.08L900.24,734.44L960.96,734.44L960.96,764.8L991.32,764.8L991.32,825.52L1021.68,825.52L1021.68,764.8L991.32,764.8L991.32,734.44L1021.68,734.44L1021.68,673.72L991.32,673.72L991.32,643.36L960.96,643.36L960.96,613L900.24,613ZM991.32,613L991.32,643.36L1021.68,643.36L1021.68,673.72L1052.04,673.72L1052.04,704.08L1082.4,704.08L1082.4,734.44L1052.04,734.44L1052.04,764.8L1082.4,764.8L1082.4,795.16L1112.76,795.16L1112.76,825.52L1143.12,825.52L1143.12,795.16L1112.76,795.16L1112.76,764.8L1143.12,764.8L1143.12,734.44L1112.76,734.44L1112.76,613L1052.04,613L1052.04,643.36L1021.68,643.36L1021.68,613L991.32,613ZM1173.48,613L1173.48,825.52L1386,825.52L1386,613L1173.48,613ZM809.16,643.36L809.16,795.16L657.36,795.16L657.36,643.36L809.16,643.36ZM1355.64,643.36L1355.64,795.16L1203.84,795.16L1203.84,643.36L1355.64,643.36ZM687.72,673.72L687.72,764.8L778.8,764.8L778.8,673.72L687.72,673.72ZM1234.2,673.72L1234.2,764.8L1325.28,764.8L1325.28,673.72L1234.2,673.72ZM869.88,734.44L869.88,855.88L930.6,855.88L930.6,916.6L900.24,916.6L900.24,886.24L869.88,886.24L869.88,855.88L809.16,855.88L809.16,886.24L839.52,886.24L839.52,916.6L809.16,916.6L809.16,946.96L869.88,946.96L869.88,977.32L900.24,977.32L900.24,946.96L869.88,946.96L869.88,916.6L900.24,916.6L900.24,946.96L960.96,946.96L960.96,886.24L991.32,886.24L991.32,916.6L1021.68,916.6L1021.68,946.96L991.32,946.96L991.32,977.32L1021.68,977.32L1021.68,1007.68L991.32,1007.68L991.32,1038.04L960.96,1038.04L960.96,1007.68L900.24,1007.68L900.24,1038.04L930.6,1038.04L930.6,1129.12L869.88,1129.12L869.88,1038.04L778.8,1038.04L778.8,1007.68L869.88,1007.68L869.88,977.32L778.8,977.32L778.8,946.96L748.44,946.96L748.44,977.32L718.08,977.32L718.08,886.24L687.72,886.24L687.72,855.88L627,855.88L627,916.6L657.36,916.6L657.36,886.24L687.72,886.24L687.72,946.96L627,946.96L627,1007.68L748.44,1007.68L748.44,1038.04L778.8,1038.04L778.8,1098.76L809.16,1098.76L809.16,1129.12L869.88,1129.12L869.88,1189.84L930.6,1189.84L930.6,1280.92L1021.68,1280.92L1021.68,1311.28L991.32,1311.28L991.32,1341.64L1021.68,1341.64L1021.68,1372L1173.48,1372L1173.48,1341.64L1143.12,1341.64L1143.12,1250.56L1203.84,1250.56L1203.84,1311.28L1264.56,1311.28L1264.56,1341.64L1294.92,1341.64L1294.92,1311.28L1264.56,1311.28L1264.56,1280.92L1294.92,1280.92L1294.92,1311.28L1325.28,1311.28L1325.28,1250.56L1294.92,1250.56L1294.92,1220.2L1325.28,1220.2L1325.28,1189.84L1294.92,1189.84L1294.92,1129.12L1325.28,1129.12L1325.28,1098.76L1264.56,1098.76L1264.56,1038.04L1234.2,1038.04L1234.2,1007.68L1203.84,1007.68L1203.84,977.32L1173.48,977.32L1173.48,946.96L1082.4,946.96L1082.4,977.32L1112.76,977.32L1112.76,1007.68L1173.48,1007.68L1173.48,1038.04L1112.76,1038.04L1112.76,1068.4L1173.48,1068.4L1173.48,1098.76L1112.76,1098.76L1112.76,1159.48L1082.4,1159.48L1082.4,1129.12L1021.68,1129.12L1021.68,1098.76L960.96,1098.76L960.96,1068.4L1021.68,1068.4L1021.68,1098.76L1082.4,1098.76L1082.4,1068.4L1021.68,1068.4L1021.68,1038.04L1082.4,1038.04L1082.4,1007.68L1052.04,1007.68L1052.04,916.6L1082.4,916.6L1082.4,886.24L1052.04,886.24L1052.04,855.88L991.32,855.88L991.32,825.52L960.96,825.52L960.96,795.16L930.6,795.16L930.6,764.8L900.24,764.8L900.24,734.44L869.88,734.44ZM1052.04,795.16L1052.04,855.88L1082.4,855.88L1082.4,886.24L1143.12,886.24L1143.12,916.6L1203.84,916.6L1203.84,946.96L1234.2,946.96L1234.2,977.32L1264.56,977.32L1264.56,1038.04L1294.92,1038.04L1294.92,1068.4L1325.28,1068.4L1325.28,1098.76L1355.64,1098.76L1355.64,1068.4L1325.28,1068.4L1325.28,1007.68L1294.92,1007.68L1294.92,977.32L1264.56,977.32L1264.56,916.6L1203.84,916.6L1203.84,886.24L1264.56,886.24L1264.56,855.88L1173.48,855.88L1173.48,886.24L1143.12,886.24L1143.12,855.88L1082.4,855.88L1082.4,795.16L1052.04,795.16ZM900.24,825.52L900.24,795.16L930.6,795.16L930.6,825.52L960.96,825.52L960.96,855.88L930.6,855.88L930.6,825.52L900.24,825.52ZM718.08,855.88L718.08,886.24L748.44,886.24L748.44,855.88L718.08,855.88ZM1294.92,855.88L1294.92,886.24L1355.64,886.24L1355.64,916.6L1325.28,916.6L1325.28,946.96L1386,946.96L1386,886.24L1355.64,886.24L1355.64,855.88L1294.92,855.88ZM1325.28,977.32L1325.28,1007.68L1355.64,1007.68L1355.64,1068.4L1386,1068.4L1386,977.32L1325.28,977.32ZM627,1038.04L627,1068.4L657.36,1068.4L657.36,1098.76L627,1098.76L627,1129.12L748.44,1129.12L748.44,1098.76L687.72,1098.76L687.72,1068.4L657.36,1068.4L657.36,1038.04L627,1038.04ZM687.72,1038.04L687.72,1068.4L748.44,1068.4L748.44,1038.04L687.72,1038.04ZM839.52,1068.4L839.52,1098.76L809.16,1098.76L809.16,1068.4L839.52,1068.4ZM1234.2,1068.4L1234.2,1098.76L1203.84,1098.76L1203.84,1068.4L1234.2,1068.4ZM991.32,1129.12L991.32,1159.48L1021.68,1159.48L1021.68,1189.84L1052.04,1189.84L1052.04,1250.56L1082.4,1250.56L1082.4,1189.84L1052.04,1189.84L1052.04,1159.48L1082.4,1159.48L1082.4,1189.84L1112.76,1189.84L1112.76,1280.92L1052.04,1280.92L1052.04,1250.56L991.32,1250.56L991.32,1189.84L960.96,1189.84L960.96,1129.12L991.32,1129.12ZM1234.2,1129.12L1234.2,1220.2L1143.12,1220.2L1143.12,1129.12L1234.2,1129.12ZM1355.64,1129.12L1355.64,1159.48L1325.28,1159.48L1325.28,1189.84L1386,1189.84L1386,1129.12L1355.64,1129.12ZM627,1159.48L627,1372L839.52,1372L839.52,1159.48L627,1159.48ZM1173.48,1159.48L1173.48,1189.84L1203.84,1189.84L1203.84,1159.48L1173.48,1159.48ZM809.16,1189.84L809.16,1341.64L657.36,1341.64L657.36,1189.84L809.16,1189.84ZM687.72,1220.2L687.72,1311.28L778.8,1311.28L778.8,1220.2L687.72,1220.2ZM869.88,1250.56L869.88,1280.92L900.24,1280.92L900.24,1311.28L869.88,1311.28L869.88,1372L960.96,1372L960.96,1311.28L930.6,1311.28L930.6,1280.92L900.24,1280.92L900.24,1250.56L869.88,1250.56ZM1355.64,1280.92L1355.64,1311.28L1386,1311.28L1386,1280.92L1355.64,1280.92ZM1082.4,1311.28L1082.4,1341.64L1052.04,1341.64L1052.04,1311.28L1082.4,1311.28ZM1203.84,1341.64L1203.84,1372L1234.2,1372L1234.2,1341.64L1203.84,1341.64ZM1325.28,1341.64L1325.28,1372L1386,1372L1386,1341.64L1325.28,1341.64Z"/>
        </g>
    </g>
</svg>
