<?xml version="1.0" encoding="UTF-8" standalone="no"?>
<!DOCTYPE svg PUBLIC "-//W3C//DTD SVG 1.1//EN" "http://www.w3.org/Graphics/SVG/1.1/DTD/svg11.dtd">
<svg width="100%" height="100%" viewBox="0 0 355 355" version="1.1" xmlns="http://www.w3.org/2000/svg" xmlns:xlink="http://www.w3.org/1999/xlink" xml:space="preserve" xmlns:serif="http://www.serif.com/" style="fill-rule:evenodd;clip-rule:evenodd;stroke-linejoin:round;stroke-miterlimit:2;">
    <g transform="matrix(1,0,0,1,-1403,-1380)">
        <g transform="matrix(1,0,0,1,776,0)">
            <path d="M627,1380L627,1465.528L712.528,1465.528L712.528,1380L627,1380ZM736.965,1380L736.965,1392.218L749.183,1392.218L749.183,1404.437L724.746,1404.437L724.746,1416.655L736.965,1416.655L736.965,1428.873L749.183,1428.873L749.183,1441.092L761.401,1441.092L761.401,1428.873L773.62,1428.873L773.62,1416.655L761.401,1416.655L761.401,1404.437L773.62,1404.437L773.62,1416.655L785.838,1416.655L785.838,1404.437L798.056,1404.437L798.056,1416.655L810.275,1416.655L810.275,1428.873L834.711,1428.873L834.711,1441.092L846.929,1441.092L846.929,1465.528L834.711,1465.528L834.711,1441.092L798.056,1441.092L798.056,1465.528L785.838,1465.528L785.838,1453.31L773.62,1453.31L773.62,1477.746L761.401,1477.746L761.401,1453.31L749.183,1453.31L749.183,1441.092L736.965,1441.092L736.965,1453.31L749.183,1453.31L749.183,1465.528L736.965,1465.528L736.965,1453.31L724.746,1453.31L724.746,1477.746L675.873,1477.746L675.873,1489.965L688.092,1489.965L688.092,1514.401L712.528,1514.401L712.528,1526.62L736.965,1526.62L736.965,1514.401L749.183,1514.401L749.183,1502.183L736.965,1502.183L736.965,1477.746L749.183,1477.746L749.183,1502.183L773.62,1502.183L773.62,1514.401L785.838,1514.401L785.838,1526.62L798.056,1526.62L798.056,1502.183L810.275,1502.183L810.275,1489.965L785.838,1489.965L785.838,1477.746L834.711,1477.746L834.711,1489.965L846.929,1489.965L846.929,1477.746L871.366,1477.746L871.366,1465.528L859.148,1465.528L859.148,1453.31L871.366,1453.31L871.366,1465.528L883.584,1465.528L883.584,1453.31L871.366,1453.31L871.366,1441.092L883.584,1441.092L883.584,1428.873L859.148,1428.873L859.148,1416.655L846.929,1416.655L846.929,1428.873L834.711,1428.873L834.711,1404.437L822.493,1404.437L822.493,1380L773.62,1380L773.62,1392.218L749.183,1392.218L749.183,1380L736.965,1380ZM846.929,1380L846.929,1392.218L859.148,1392.218L859.148,1416.655L871.366,1416.655L871.366,1380L846.929,1380ZM895.803,1380L895.803,1465.528L981.331,1465.528L981.331,1380L895.803,1380ZM700.31,1392.218L700.31,1453.31L639.218,1453.31L639.218,1392.218L700.31,1392.218ZM969.112,1392.218L969.112,1453.31L908.021,1453.31L908.021,1392.218L969.112,1392.218ZM651.437,1404.437L651.437,1441.092L688.092,1441.092L688.092,1404.437L651.437,1404.437ZM920.239,1404.437L920.239,1441.092L956.894,1441.092L956.894,1404.437L920.239,1404.437ZM822.493,1416.655L810.275,1416.655L810.275,1404.437L822.493,1404.437L822.493,1416.655ZM822.493,1453.31L822.493,1465.528L810.275,1465.528L810.275,1453.31L822.493,1453.31ZM627,1477.746L627,1489.965L663.655,1489.965L663.655,1514.401L675.873,1514.401L675.873,1489.965L663.655,1489.965L663.655,1477.746L627,1477.746ZM883.584,1477.746L883.584,1489.965L871.366,1489.965L871.366,1514.401L883.584,1514.401L883.584,1538.838L895.803,1538.838L895.803,1551.056L883.584,1551.056L883.584,1538.838L871.366,1538.838L871.366,1551.056L883.584,1551.056L883.584,1563.275L895.803,1563.275L895.803,1575.493L871.366,1575.493L871.366,1563.275L846.929,1563.275L846.929,1551.056L834.711,1551.056L834.711,1538.838L773.62,1538.838L773.62,1563.275L785.838,1563.275L785.838,1587.711L773.62,1587.711L773.62,1563.275L761.401,1563.275L761.401,1575.493L749.183,1575.493L749.183,1563.275L736.965,1563.275L736.965,1551.056L749.183,1551.056L749.183,1538.838L724.746,1538.838L724.746,1551.056L688.092,1551.056L688.092,1526.62L663.655,1526.62L663.655,1538.838L651.437,1538.838L651.437,1502.183L627,1502.183L627,1514.401L639.218,1514.401L639.218,1538.838L651.437,1538.838L651.437,1551.056L663.655,1551.056L663.655,1587.711L639.218,1587.711L639.218,1599.929L675.873,1599.929L675.873,1612.148L724.746,1612.148L724.746,1624.366L736.965,1624.366L736.965,1636.584L749.183,1636.584L749.183,1648.803L761.401,1648.803L761.401,1636.584L749.183,1636.584L749.183,1624.366L773.62,1624.366L773.62,1612.148L749.183,1612.148L749.183,1599.929L736.965,1599.929L736.965,1587.711L712.528,1587.711L712.528,1575.493L700.31,1575.493L700.31,1587.711L712.528,1587.711L712.528,1599.929L700.31,1599.929L700.31,1587.711L688.092,1587.711L688.092,1599.929L675.873,1599.929L675.873,1551.056L688.092,1551.056L688.092,1563.275L724.746,1563.275L724.746,1575.493L749.183,1575.493L749.183,1587.711L761.401,1587.711L761.401,1599.929L773.62,1599.929L773.62,1612.148L785.838,1612.148L785.838,1624.366L822.493,1624.366L822.493,1661.021L834.711,1661.021L834.711,1673.239L810.275,1673.239L810.275,1685.458L822.493,1685.458L822.493,1697.676L846.929,1697.676L846.929,1709.894L834.711,1709.894L834.711,1734.331L846.929,1734.331L846.929,1722.112L859.148,1722.112L859.148,1734.331L908.021,1734.331L908.021,1722.112L895.803,1722.112L895.803,1709.894L883.584,1709.894L883.584,1697.676L871.366,1697.676L871.366,1685.458L859.148,1685.458L859.148,1673.239L846.929,1673.239L846.929,1661.021L834.711,1661.021L834.711,1648.803L859.148,1648.803L859.148,1661.021L871.366,1661.021L871.366,1685.458L908.021,1685.458L908.021,1709.894L920.239,1709.894L920.239,1734.331L932.458,1734.331L932.458,1709.894L944.676,1709.894L944.676,1697.676L932.458,1697.676L932.458,1673.239L944.676,1673.239L944.676,1648.803L932.458,1648.803L932.458,1624.366L944.676,1624.366L944.676,1612.148L932.458,1612.148L932.458,1599.929L920.239,1599.929L920.239,1612.148L908.021,1612.148L908.021,1624.366L895.803,1624.366L895.803,1612.148L883.584,1612.148L883.584,1624.366L871.366,1624.366L871.366,1648.803L859.148,1648.803L859.148,1636.584L834.711,1636.584L834.711,1624.366L846.929,1624.366L846.929,1587.711L834.711,1587.711L834.711,1599.929L822.493,1599.929L822.493,1612.148L810.275,1612.148L810.275,1575.493L822.493,1575.493L822.493,1563.275L798.056,1563.275L798.056,1551.056L822.493,1551.056L822.493,1563.275L834.711,1563.275L834.711,1575.493L871.366,1575.493L871.366,1599.929L908.021,1599.929L908.021,1575.493L920.239,1575.493L920.239,1563.275L932.458,1563.275L932.458,1599.929L956.894,1599.929L956.894,1624.366L969.112,1624.366L969.112,1612.148L981.331,1612.148L981.331,1575.493L969.112,1575.493L969.112,1563.275L981.331,1563.275L981.331,1526.62L969.112,1526.62L969.112,1514.401L981.331,1514.401L981.331,1489.965L969.112,1489.965L969.112,1502.183L944.676,1502.183L944.676,1489.965L932.458,1489.965L932.458,1502.183L944.676,1502.183L944.676,1514.401L956.894,1514.401L956.894,1538.838L969.112,1538.838L969.112,1551.056L956.894,1551.056L956.894,1587.711L969.112,1587.711L969.112,1599.929L956.894,1599.929L956.894,1587.711L944.676,1587.711L944.676,1526.62L932.458,1526.62L932.458,1551.056L908.021,1551.056L908.021,1538.838L920.239,1538.838L920.239,1526.62L908.021,1526.62L908.021,1514.401L895.803,1514.401L895.803,1502.183L920.239,1502.183L920.239,1514.401L932.458,1514.401L932.458,1502.183L920.239,1502.183L920.239,1489.965L908.021,1489.965L908.021,1477.746L883.584,1477.746ZM944.676,1477.746L944.676,1489.965L956.894,1489.965L956.894,1477.746L944.676,1477.746ZM724.746,1489.965L724.746,1514.401L712.528,1514.401L712.528,1502.183L700.31,1502.183L700.31,1489.965L724.746,1489.965ZM785.838,1502.183L773.62,1502.183L773.62,1489.965L785.838,1489.965L785.838,1502.183ZM822.493,1514.401L822.493,1526.62L834.711,1526.62L834.711,1538.838L859.148,1538.838L859.148,1526.62L871.366,1526.62L871.366,1514.401L822.493,1514.401ZM700.31,1526.62L700.31,1538.838L712.528,1538.838L712.528,1526.62L700.31,1526.62ZM627,1538.838L627,1551.056L639.218,1551.056L639.218,1538.838L627,1538.838ZM639.218,1563.275L639.218,1575.493L651.437,1575.493L651.437,1563.275L639.218,1563.275ZM627,1599.929L627,1612.148L639.218,1612.148L639.218,1624.366L651.437,1624.366L651.437,1636.584L688.092,1636.584L688.092,1624.366L675.873,1624.366L675.873,1612.148L663.655,1612.148L663.655,1624.366L651.437,1624.366L651.437,1612.148L639.218,1612.148L639.218,1599.929L627,1599.929ZM627,1624.366L627,1636.584L639.218,1636.584L639.218,1624.366L627,1624.366ZM700.31,1624.366L700.31,1636.584L724.746,1636.584L724.746,1685.458L761.401,1685.458L761.401,1697.676L785.838,1697.676L785.838,1685.458L761.401,1685.458L761.401,1673.239L749.183,1673.239L749.183,1661.021L736.965,1661.021L736.965,1636.584L724.746,1636.584L724.746,1624.366L700.31,1624.366ZM785.838,1636.584L785.838,1648.803L773.62,1648.803L773.62,1673.239L798.056,1673.239L798.056,1648.803L810.275,1648.803L810.275,1636.584L785.838,1636.584ZM920.239,1636.584L920.239,1673.239L883.584,1673.239L883.584,1636.584L920.239,1636.584ZM944.676,1636.584L944.676,1648.803L956.894,1648.803L956.894,1673.239L969.112,1673.239L969.112,1709.894L981.331,1709.894L981.331,1673.239L969.112,1673.239L969.112,1661.021L981.331,1661.021L981.331,1636.584L944.676,1636.584ZM627,1648.803L627,1734.331L712.528,1734.331L712.528,1648.803L627,1648.803ZM895.803,1648.803L895.803,1661.021L908.021,1661.021L908.021,1648.803L895.803,1648.803ZM700.31,1661.021L700.31,1722.112L639.218,1722.112L639.218,1661.021L700.31,1661.021ZM651.437,1673.239L651.437,1709.894L688.092,1709.894L688.092,1673.239L651.437,1673.239ZM944.676,1685.458L944.676,1697.676L956.894,1697.676L956.894,1685.458L944.676,1685.458ZM724.746,1697.676L724.746,1734.331L736.965,1734.331L736.965,1722.112L749.183,1722.112L749.183,1734.331L798.056,1734.331L798.056,1709.894L785.838,1709.894L785.838,1722.112L761.401,1722.112L761.401,1709.894L736.965,1709.894L736.965,1697.676L724.746,1697.676ZM810.275,1709.894L810.275,1734.331L822.493,1734.331L822.493,1709.894L810.275,1709.894ZM871.366,1709.894L871.366,1722.112L859.148,1722.112L859.148,1709.894L871.366,1709.894ZM956.894,1709.894L956.894,1734.331L981.331,1734.331L981.331,1722.112L969.112,1722.112L969.112,1709.894L956.894,1709.894Z"/>
        </g>
    </g>
</svg>
