<?xml version="1.0" encoding="UTF-8" standalone="no"?>
<!DOCTYPE svg PUBLIC "-//W3C//DTD SVG 1.1//EN" "http://www.w3.org/Graphics/SVG/1.1/DTD/svg11.dtd">
<svg width="100%" height="100%" viewBox="0 0 355 355" version="1.1" xmlns="http://www.w3.org/2000/svg" xmlns:xlink="http://www.w3.org/1999/xlink" xml:space="preserve" xmlns:serif="http://www.serif.com/" style="fill-rule:evenodd;clip-rule:evenodd;stroke-linejoin:round;stroke-miterlimit:2;">
    <g transform="matrix(1,0,0,1,-1403,-613)">
        <path d="M1403,613L1403,698.528L1488.528,698.528L1488.528,613L1403,613ZM1512.965,613L1512.965,625.218L1500.746,625.218L1500.746,637.437L1512.965,637.437L1512.965,649.655L1500.746,649.655L1500.746,661.873L1525.183,661.873L1525.183,649.655L1561.838,649.655L1561.838,661.873L1574.056,661.873L1574.056,674.092L1586.275,674.092L1586.275,686.31L1598.493,686.31L1598.493,698.528L1610.711,698.528L1610.711,661.873L1598.493,661.873L1598.493,649.655L1586.275,649.655L1586.275,637.437L1635.148,637.437L1635.148,649.655L1647.366,649.655L1647.366,661.873L1659.584,661.873L1659.584,625.218L1647.366,625.218L1647.366,613L1635.148,613L1635.148,625.218L1647.366,625.218L1647.366,637.437L1635.148,637.437L1635.148,625.218L1610.711,625.218L1610.711,613L1598.493,613L1598.493,625.218L1586.275,625.218L1586.275,613L1574.056,613L1574.056,649.655L1561.838,649.655L1561.838,637.437L1525.183,637.437L1525.183,613L1512.965,613ZM1537.401,613L1537.401,625.218L1561.838,625.218L1561.838,613L1537.401,613ZM1671.803,613L1671.803,698.528L1757.331,698.528L1757.331,613L1671.803,613ZM1476.31,625.218L1476.31,686.31L1415.218,686.31L1415.218,625.218L1476.31,625.218ZM1745.112,625.218L1745.112,686.31L1684.021,686.31L1684.021,625.218L1745.112,625.218ZM1427.437,637.437L1427.437,674.092L1464.092,674.092L1464.092,637.437L1427.437,637.437ZM1696.239,637.437L1696.239,674.092L1732.894,674.092L1732.894,637.437L1696.239,637.437ZM1610.711,649.655L1610.711,661.873L1635.148,661.873L1635.148,674.092L1647.366,674.092L1647.366,661.873L1635.148,661.873L1635.148,649.655L1610.711,649.655ZM1537.401,661.873L1537.401,674.092L1549.62,674.092L1549.62,698.528L1561.838,698.528L1561.838,686.31L1574.056,686.31L1574.056,710.746L1598.493,710.746L1598.493,698.528L1586.275,698.528L1586.275,686.31L1574.056,686.31L1574.056,674.092L1549.62,674.092L1549.62,661.873L1537.401,661.873ZM1500.746,674.092L1500.746,698.528L1512.965,698.528L1512.965,674.092L1500.746,674.092ZM1525.183,674.092L1525.183,698.528L1537.401,698.528L1537.401,710.746L1476.31,710.746L1476.31,722.965L1488.528,722.965L1488.528,735.183L1500.746,735.183L1500.746,747.401L1488.528,747.401L1488.528,735.183L1476.31,735.183L1476.31,722.965L1464.092,722.965L1464.092,710.746L1403,710.746L1403,722.965L1451.873,722.965L1451.873,771.838L1439.655,771.838L1439.655,735.183L1427.437,735.183L1427.437,747.401L1415.218,747.401L1415.218,735.183L1403,735.183L1403,759.62L1415.218,759.62L1415.218,771.838L1403,771.838L1403,784.056L1427.437,784.056L1427.437,771.838L1439.655,771.838L1439.655,784.056L1464.092,784.056L1464.092,808.493L1476.31,808.493L1476.31,820.711L1488.528,820.711L1488.528,832.929L1464.092,832.929L1464.092,808.493L1451.873,808.493L1451.873,796.275L1439.655,796.275L1439.655,808.493L1415.218,808.493L1415.218,796.275L1403,796.275L1403,808.493L1415.218,808.493L1415.218,820.711L1439.655,820.711L1439.655,832.929L1427.437,832.929L1427.437,869.584L1439.655,869.584L1439.655,845.148L1464.092,845.148L1464.092,869.584L1500.746,869.584L1500.746,894.021L1512.965,894.021L1512.965,881.803L1525.183,881.803L1525.183,906.239L1500.746,906.239L1500.746,967.331L1537.401,967.331L1537.401,955.112L1512.965,955.112L1512.965,942.894L1525.183,942.894L1525.183,918.458L1537.401,918.458L1537.401,930.676L1549.62,930.676L1549.62,918.458L1537.401,918.458L1537.401,906.239L1561.838,906.239L1561.838,918.458L1574.056,918.458L1574.056,955.112L1549.62,955.112L1549.62,967.331L1622.929,967.331L1622.929,955.112L1610.711,955.112L1610.711,942.894L1598.493,942.894L1598.493,930.676L1586.275,930.676L1586.275,906.239L1598.493,906.239L1598.493,918.458L1610.711,918.458L1610.711,930.676L1622.929,930.676L1622.929,955.112L1659.584,955.112L1659.584,942.894L1635.148,942.894L1635.148,930.676L1622.929,930.676L1622.929,906.239L1610.711,906.239L1610.711,869.584L1586.275,869.584L1586.275,857.366L1574.056,857.366L1574.056,881.803L1586.275,881.803L1586.275,894.021L1574.056,894.021L1574.056,906.239L1561.838,906.239L1561.838,894.021L1537.401,894.021L1537.401,881.803L1549.62,881.803L1549.62,869.584L1500.746,869.584L1500.746,857.366L1537.401,857.366L1537.401,845.148L1525.183,845.148L1525.183,832.929L1500.746,832.929L1500.746,820.711L1488.528,820.711L1488.528,808.493L1476.31,808.493L1476.31,796.275L1500.746,796.275L1500.746,820.711L1525.183,820.711L1525.183,832.929L1549.62,832.929L1549.62,845.148L1561.838,845.148L1561.838,832.929L1549.62,832.929L1549.62,820.711L1574.056,820.711L1574.056,832.929L1586.275,832.929L1586.275,845.148L1598.493,845.148L1598.493,857.366L1610.711,857.366L1610.711,869.584L1622.929,869.584L1622.929,881.803L1635.148,881.803L1635.148,894.021L1647.366,894.021L1647.366,930.676L1671.803,930.676L1671.803,942.894L1684.021,942.894L1684.021,967.331L1732.894,967.331L1732.894,955.112L1720.676,955.112L1720.676,942.894L1732.894,942.894L1732.894,955.112L1745.112,955.112L1745.112,930.676L1732.894,930.676L1732.894,918.458L1745.112,918.458L1745.112,930.676L1757.331,930.676L1757.331,918.458L1745.112,918.458L1745.112,906.239L1720.676,906.239L1720.676,918.458L1708.458,918.458L1708.458,894.021L1732.894,894.021L1732.894,881.803L1757.331,881.803L1757.331,857.366L1745.112,857.366L1745.112,845.148L1732.894,845.148L1732.894,808.493L1708.458,808.493L1708.458,820.711L1720.676,820.711L1720.676,845.148L1732.894,845.148L1732.894,857.366L1720.676,857.366L1720.676,869.584L1708.458,869.584L1708.458,820.711L1696.239,820.711L1696.239,832.929L1684.021,832.929L1684.021,820.711L1671.803,820.711L1671.803,808.493L1647.366,808.493L1647.366,820.711L1671.803,820.711L1671.803,832.929L1647.366,832.929L1647.366,820.711L1635.148,820.711L1635.148,832.929L1647.366,832.929L1647.366,869.584L1622.929,869.584L1622.929,857.366L1610.711,857.366L1610.711,820.711L1598.493,820.711L1598.493,808.493L1610.711,808.493L1610.711,820.711L1622.929,820.711L1622.929,808.493L1610.711,808.493L1610.711,796.275L1622.929,796.275L1622.929,771.838L1635.148,771.838L1635.148,784.056L1647.366,784.056L1647.366,796.275L1659.584,796.275L1659.584,784.056L1647.366,784.056L1647.366,771.838L1635.148,771.838L1635.148,759.62L1647.366,759.62L1647.366,771.838L1659.584,771.838L1659.584,784.056L1671.803,784.056L1671.803,808.493L1696.239,808.493L1696.239,796.275L1684.021,796.275L1684.021,784.056L1708.458,784.056L1708.458,796.275L1732.894,796.275L1732.894,808.493L1745.112,808.493L1745.112,796.275L1732.894,796.275L1732.894,784.056L1708.458,784.056L1708.458,771.838L1671.803,771.838L1671.803,759.62L1659.584,759.62L1659.584,747.401L1635.148,747.401L1635.148,735.183L1622.929,735.183L1622.929,722.965L1635.148,722.965L1635.148,735.183L1647.366,735.183L1647.366,722.965L1635.148,722.965L1635.148,686.31L1622.929,686.31L1622.929,710.746L1610.711,710.746L1610.711,722.965L1598.493,722.965L1598.493,735.183L1622.929,735.183L1622.929,759.62L1598.493,759.62L1598.493,735.183L1574.056,735.183L1574.056,759.62L1586.275,759.62L1586.275,771.838L1598.493,771.838L1598.493,784.056L1586.275,784.056L1586.275,771.838L1574.056,771.838L1574.056,759.62L1549.62,759.62L1549.62,747.401L1525.183,747.401L1525.183,722.965L1537.401,722.965L1537.401,735.183L1549.62,735.183L1549.62,722.965L1574.056,722.965L1574.056,710.746L1549.62,710.746L1549.62,698.528L1537.401,698.528L1537.401,674.092L1525.183,674.092ZM1598.493,674.092L1586.275,674.092L1586.275,661.873L1598.493,661.873L1598.493,674.092ZM1647.366,686.31L1647.366,698.528L1659.584,698.528L1659.584,686.31L1647.366,686.31ZM1647.366,710.746L1647.366,722.965L1659.584,722.965L1659.584,735.183L1684.021,735.183L1684.021,759.62L1696.239,759.62L1696.239,747.401L1708.458,747.401L1708.458,771.838L1732.894,771.838L1732.894,759.62L1720.676,759.62L1720.676,747.401L1708.458,747.401L1708.458,722.965L1696.239,722.965L1696.239,710.746L1684.021,710.746L1684.021,722.965L1671.803,722.965L1671.803,710.746L1647.366,710.746ZM1708.458,710.746L1708.458,722.965L1720.676,722.965L1720.676,710.746L1708.458,710.746ZM1732.894,710.746L1732.894,722.965L1745.112,722.965L1745.112,735.183L1757.331,735.183L1757.331,722.965L1745.112,722.965L1745.112,710.746L1732.894,710.746ZM1512.965,722.965L1512.965,735.183L1500.746,735.183L1500.746,722.965L1512.965,722.965ZM1732.894,747.401L1732.894,759.62L1745.112,759.62L1745.112,747.401L1732.894,747.401ZM1464.092,759.62L1464.092,747.401L1488.528,747.401L1488.528,759.62L1464.092,759.62ZM1512.965,759.62L1512.965,784.056L1500.746,784.056L1500.746,759.62L1512.965,759.62ZM1537.401,759.62L1537.401,771.838L1525.183,771.838L1525.183,759.62L1537.401,759.62ZM1488.528,771.838L1488.528,784.056L1476.31,784.056L1476.31,771.838L1488.528,771.838ZM1745.112,771.838L1745.112,784.056L1757.331,784.056L1757.331,771.838L1745.112,771.838ZM1561.838,784.056L1561.838,796.275L1574.056,796.275L1574.056,784.056L1561.838,784.056ZM1549.62,796.275L1549.62,808.493L1537.401,808.493L1537.401,784.056L1549.62,784.056L1549.62,771.838L1574.056,771.838L1574.056,784.056L1586.275,784.056L1586.275,820.711L1598.493,820.711L1598.493,832.929L1586.275,832.929L1586.275,820.711L1574.056,820.711L1574.056,808.493L1561.838,808.493L1561.838,796.275L1549.62,796.275ZM1403,820.711L1403,869.584L1415.218,869.584L1415.218,820.711L1403,820.711ZM1745.112,820.711L1745.112,832.929L1757.331,832.929L1757.331,820.711L1745.112,820.711ZM1488.528,845.148L1488.528,857.366L1476.31,857.366L1476.31,845.148L1488.528,845.148ZM1622.929,845.148L1622.929,857.366L1635.148,857.366L1635.148,845.148L1622.929,845.148ZM1696.239,845.148L1696.239,857.366L1671.803,857.366L1671.803,845.148L1696.239,845.148ZM1696.239,869.584L1696.239,906.239L1659.584,906.239L1659.584,869.584L1696.239,869.584ZM1403,881.803L1403,967.331L1488.528,967.331L1488.528,881.803L1403,881.803ZM1671.803,881.803L1671.803,894.021L1684.021,894.021L1684.021,881.803L1671.803,881.803ZM1476.31,894.021L1476.31,955.112L1415.218,955.112L1415.218,894.021L1476.31,894.021ZM1745.112,894.021L1745.112,906.239L1757.331,906.239L1757.331,894.021L1745.112,894.021ZM1427.437,906.239L1427.437,942.894L1464.092,942.894L1464.092,906.239L1427.437,906.239ZM1671.803,930.676L1671.803,918.458L1708.458,918.458L1708.458,930.676L1671.803,930.676ZM1708.458,942.894L1708.458,955.112L1696.239,955.112L1696.239,942.894L1708.458,942.894Z"/>
    </g>
</svg>
