<?xml version="1.0" encoding="UTF-8" standalone="no"?>
<!DOCTYPE svg PUBLIC "-//W3C//DTD SVG 1.1//EN" "http://www.w3.org/Graphics/SVG/1.1/DTD/svg11.dtd">
<svg width="100%" height="100%" viewBox="0 0 355 355" version="1.1" xmlns="http://www.w3.org/2000/svg" xmlns:xlink="http://www.w3.org/1999/xlink" xml:space="preserve" xmlns:serif="http://www.serif.com/" style="fill-rule:evenodd;clip-rule:evenodd;stroke-linejoin:round;stroke-miterlimit:2;">
    <g transform="matrix(1,0,0,1,-627,-1380)">
        <path d="M627,1380L627,1465.528L712.528,1465.528L712.528,1380L627,1380ZM736.965,1380L736.965,1392.218L724.746,1392.218L724.746,1404.437L736.965,1404.437L736.965,1416.655L749.183,1416.655L749.183,1392.218L773.62,1392.218L773.62,1404.437L798.056,1404.437L798.056,1416.655L761.401,1416.655L761.401,1428.873L736.965,1428.873L736.965,1416.655L724.746,1416.655L724.746,1428.873L736.965,1428.873L736.965,1441.092L773.62,1441.092L773.62,1465.528L785.838,1465.528L785.838,1453.31L798.056,1453.31L798.056,1489.965L822.493,1489.965L822.493,1502.183L834.711,1502.183L834.711,1514.401L846.929,1514.401L846.929,1526.62L859.148,1526.62L859.148,1538.838L846.929,1538.838L846.929,1526.62L834.711,1526.62L834.711,1514.401L822.493,1514.401L822.493,1502.183L810.275,1502.183L810.275,1514.401L822.493,1514.401L822.493,1526.62L798.056,1526.62L798.056,1551.056L810.275,1551.056L810.275,1575.493L822.493,1575.493L822.493,1587.711L846.929,1587.711L846.929,1599.929L871.366,1599.929L871.366,1612.148L883.584,1612.148L883.584,1624.366L871.366,1624.366L871.366,1612.148L859.148,1612.148L859.148,1624.366L871.366,1624.366L871.366,1648.803L859.148,1648.803L859.148,1636.584L846.929,1636.584L846.929,1624.366L773.62,1624.366L773.62,1612.148L761.401,1612.148L761.401,1587.711L749.183,1587.711L749.183,1575.493L761.401,1575.493L761.401,1587.711L785.838,1587.711L785.838,1599.929L798.056,1599.929L798.056,1587.711L785.838,1587.711L785.838,1575.493L773.62,1575.493L773.62,1563.275L761.401,1563.275L761.401,1551.056L749.183,1551.056L749.183,1526.62L773.62,1526.62L773.62,1514.401L761.401,1514.401L761.401,1477.746L773.62,1477.746L773.62,1465.528L761.401,1465.528L761.401,1453.31L749.183,1453.31L749.183,1465.528L736.965,1465.528L736.965,1441.092L724.746,1441.092L724.746,1465.528L736.965,1465.528L736.965,1477.746L749.183,1477.746L749.183,1489.965L736.965,1489.965L736.965,1477.746L700.31,1477.746L700.31,1489.965L736.965,1489.965L736.965,1502.183L700.31,1502.183L700.31,1514.401L712.528,1514.401L712.528,1526.62L700.31,1526.62L700.31,1514.401L688.092,1514.401L688.092,1526.62L700.31,1526.62L700.31,1538.838L712.528,1538.838L712.528,1551.056L700.31,1551.056L700.31,1563.275L712.528,1563.275L712.528,1575.493L700.31,1575.493L700.31,1563.275L688.092,1563.275L688.092,1551.056L675.873,1551.056L675.873,1538.838L663.655,1538.838L663.655,1526.62L675.873,1526.62L675.873,1538.838L688.092,1538.838L688.092,1526.62L675.873,1526.62L675.873,1514.401L651.437,1514.401L651.437,1538.838L639.218,1538.838L639.218,1502.183L651.437,1502.183L651.437,1489.965L675.873,1489.965L675.873,1502.183L688.092,1502.183L688.092,1477.746L627,1477.746L627,1538.838L639.218,1538.838L639.218,1551.056L663.655,1551.056L663.655,1563.275L688.092,1563.275L688.092,1575.493L663.655,1575.493L663.655,1563.275L651.437,1563.275L651.437,1575.493L639.218,1575.493L639.218,1587.711L627,1587.711L627,1636.584L639.218,1636.584L639.218,1599.929L651.437,1599.929L651.437,1587.711L663.655,1587.711L663.655,1599.929L688.092,1599.929L688.092,1587.711L724.746,1587.711L724.746,1575.493L736.965,1575.493L736.965,1599.929L749.183,1599.929L749.183,1612.148L761.401,1612.148L761.401,1636.584L834.711,1636.584L834.711,1648.803L859.148,1648.803L859.148,1661.021L846.929,1661.021L846.929,1673.239L822.493,1673.239L822.493,1648.803L773.62,1648.803L773.62,1673.239L761.401,1673.239L761.401,1648.803L736.965,1648.803L736.965,1636.584L724.746,1636.584L724.746,1624.366L700.31,1624.366L700.31,1612.148L675.873,1612.148L675.873,1624.366L700.31,1624.366L700.31,1636.584L724.746,1636.584L724.746,1661.021L736.965,1661.021L736.965,1673.239L761.401,1673.239L761.401,1697.676L773.62,1697.676L773.62,1685.458L785.838,1685.458L785.838,1709.894L798.056,1709.894L798.056,1697.676L810.275,1697.676L810.275,1722.112L798.056,1722.112L798.056,1734.331L859.148,1734.331L859.148,1722.112L822.493,1722.112L822.493,1697.676L810.275,1697.676L810.275,1685.458L834.711,1685.458L834.711,1709.894L846.929,1709.894L846.929,1697.676L859.148,1697.676L859.148,1709.894L871.366,1709.894L871.366,1722.112L883.584,1722.112L883.584,1734.331L895.803,1734.331L895.803,1709.894L883.584,1709.894L883.584,1685.458L932.458,1685.458L932.458,1697.676L895.803,1697.676L895.803,1709.894L908.021,1709.894L908.021,1734.331L956.894,1734.331L956.894,1722.112L944.676,1722.112L944.676,1709.894L956.894,1709.894L956.894,1722.112L969.112,1722.112L969.112,1697.676L956.894,1697.676L956.894,1673.239L944.676,1673.239L944.676,1685.458L932.458,1685.458L932.458,1661.021L956.894,1661.021L956.894,1648.803L981.331,1648.803L981.331,1624.366L969.112,1624.366L969.112,1612.148L956.894,1612.148L956.894,1575.493L932.458,1575.493L932.458,1563.275L956.894,1563.275L956.894,1575.493L969.112,1575.493L969.112,1563.275L956.894,1563.275L956.894,1551.056L932.458,1551.056L932.458,1538.838L920.239,1538.838L920.239,1526.62L932.458,1526.62L932.458,1538.838L956.894,1538.838L956.894,1526.62L944.676,1526.62L944.676,1514.401L932.458,1514.401L932.458,1489.965L920.239,1489.965L920.239,1477.746L908.021,1477.746L908.021,1489.965L895.803,1489.965L895.803,1477.746L883.584,1477.746L883.584,1428.873L846.929,1428.873L846.929,1416.655L834.711,1416.655L834.711,1392.218L846.929,1392.218L846.929,1416.655L871.366,1416.655L871.366,1404.437L859.148,1404.437L859.148,1392.218L871.366,1392.218L871.366,1404.437L883.584,1404.437L883.584,1380L810.275,1380L810.275,1392.218L798.056,1392.218L798.056,1380L785.838,1380L785.838,1392.218L773.62,1392.218L773.62,1380L736.965,1380ZM895.803,1380L895.803,1465.528L981.331,1465.528L981.331,1380L895.803,1380ZM700.31,1392.218L700.31,1453.31L639.218,1453.31L639.218,1392.218L700.31,1392.218ZM969.112,1392.218L969.112,1453.31L908.021,1453.31L908.021,1392.218L969.112,1392.218ZM651.437,1404.437L651.437,1441.092L688.092,1441.092L688.092,1404.437L651.437,1404.437ZM822.493,1404.437L822.493,1416.655L810.275,1416.655L810.275,1404.437L822.493,1404.437ZM920.239,1404.437L920.239,1441.092L956.894,1441.092L956.894,1404.437L920.239,1404.437ZM785.838,1428.873L785.838,1441.092L773.62,1441.092L773.62,1428.873L785.838,1428.873ZM798.056,1441.092L798.056,1428.873L846.929,1428.873L846.929,1465.528L859.148,1465.528L859.148,1489.965L846.929,1489.965L846.929,1477.746L834.711,1477.746L834.711,1489.965L822.493,1489.965L822.493,1477.746L810.275,1477.746L810.275,1453.31L822.493,1453.31L822.493,1465.528L834.711,1465.528L834.711,1453.31L822.493,1453.31L822.493,1441.092L798.056,1441.092ZM871.366,1441.092L871.366,1465.528L859.148,1465.528L859.148,1441.092L871.366,1441.092ZM932.458,1477.746L932.458,1489.965L944.676,1489.965L944.676,1477.746L932.458,1477.746ZM956.894,1477.746L956.894,1489.965L969.112,1489.965L969.112,1502.183L981.331,1502.183L981.331,1489.965L969.112,1489.965L969.112,1477.746L956.894,1477.746ZM773.62,1502.183L773.62,1514.401L798.056,1514.401L798.056,1502.183L773.62,1502.183ZM871.366,1502.183L871.366,1477.746L883.584,1477.746L883.584,1489.965L895.803,1489.965L895.803,1502.183L920.239,1502.183L920.239,1514.401L895.803,1514.401L895.803,1502.183L871.366,1502.183ZM871.366,1526.62L883.584,1526.62L883.584,1514.401L895.803,1514.401L895.803,1526.62L908.021,1526.62L908.021,1538.838L871.366,1538.838L871.366,1526.62L859.148,1526.62L859.148,1514.401L846.929,1514.401L846.929,1502.183L871.366,1502.183L871.366,1526.62ZM956.894,1514.401L956.894,1526.62L969.112,1526.62L969.112,1514.401L956.894,1514.401ZM736.965,1526.62L736.965,1551.056L724.746,1551.056L724.746,1526.62L736.965,1526.62ZM969.112,1538.838L969.112,1551.056L981.331,1551.056L981.331,1538.838L969.112,1538.838ZM871.366,1551.056L871.366,1563.275L846.929,1563.275L846.929,1551.056L871.366,1551.056ZM908.021,1551.056L908.021,1563.275L920.239,1563.275L920.239,1575.493L932.458,1575.493L932.458,1587.711L944.676,1587.711L944.676,1612.148L956.894,1612.148L956.894,1624.366L944.676,1624.366L944.676,1636.584L932.458,1636.584L932.458,1624.366L895.803,1624.366L895.803,1599.929L883.584,1599.929L883.584,1587.711L871.366,1587.711L871.366,1575.493L883.584,1575.493L883.584,1563.275L895.803,1563.275L895.803,1551.056L908.021,1551.056ZM798.056,1575.493L798.056,1587.711L810.275,1587.711L810.275,1575.493L798.056,1575.493ZM822.493,1575.493L822.493,1563.275L846.929,1563.275L846.929,1575.493L859.148,1575.493L859.148,1587.711L846.929,1587.711L846.929,1575.493L822.493,1575.493ZM895.803,1587.711L895.803,1599.929L920.239,1599.929L920.239,1612.148L932.458,1612.148L932.458,1587.711L895.803,1587.711ZM969.112,1587.711L969.112,1599.929L981.331,1599.929L981.331,1587.711L969.112,1587.711ZM700.31,1599.929L700.31,1612.148L724.746,1612.148L724.746,1599.929L700.31,1599.929ZM810.275,1599.929L810.275,1612.148L822.493,1612.148L822.493,1599.929L810.275,1599.929ZM651.437,1612.148L651.437,1636.584L675.873,1636.584L675.873,1624.366L663.655,1624.366L663.655,1612.148L651.437,1612.148ZM736.965,1612.148L736.965,1636.584L749.183,1636.584L749.183,1612.148L736.965,1612.148ZM920.239,1636.584L920.239,1673.239L883.584,1673.239L883.584,1636.584L920.239,1636.584ZM627,1648.803L627,1734.331L712.528,1734.331L712.528,1648.803L627,1648.803ZM895.803,1648.803L895.803,1661.021L908.021,1661.021L908.021,1648.803L895.803,1648.803ZM700.31,1661.021L700.31,1722.112L639.218,1722.112L639.218,1661.021L700.31,1661.021ZM798.056,1661.021L798.056,1685.458L785.838,1685.458L785.838,1661.021L798.056,1661.021ZM651.437,1673.239L651.437,1709.894L688.092,1709.894L688.092,1673.239L651.437,1673.239ZM724.746,1673.239L724.746,1734.331L736.965,1734.331L736.965,1673.239L724.746,1673.239ZM871.366,1673.239L871.366,1697.676L859.148,1697.676L859.148,1673.239L871.366,1673.239ZM969.112,1685.458L969.112,1697.676L981.331,1697.676L981.331,1685.458L969.112,1685.458ZM749.183,1709.894L749.183,1722.112L773.62,1722.112L773.62,1709.894L749.183,1709.894ZM932.458,1709.894L932.458,1722.112L920.239,1722.112L920.239,1709.894L932.458,1709.894Z"/>
    </g>
</svg>
